<svg width="36" height="36" viewBox="0 0 36 36" fill="none" xmlns="http://www.w3.org/2000/svg">
<path d="M18 36C27.9411 36 36 27.9411 36 18C36 8.05887 27.9411 0 18 0C8.05887 0 0 8.05887 0 18C0 27.9411 8.05887 36 18 36Z" fill="url(#paint0_linear)"/>
<path d="M23.7211 28.4929H12.2782C9.6686 28.4929 7.54395 26.369 7.54395 23.7576V12.317C7.54395 9.70534 9.6686 7.58094 12.2782 7.58094H23.7213C26.3302 7.58094 28.4559 9.70534 28.4559 12.317V23.7576C28.4556 26.369 26.33 28.4929 23.7211 28.4929ZM12.2782 9.66355C10.8155 9.66355 9.62505 10.8545 9.62505 12.3172V23.7578C9.62505 25.2223 10.8155 26.4123 12.2782 26.4123H23.7213C25.1836 26.4123 26.373 25.2221 26.373 23.7578V12.3172C26.373 10.8545 25.1836 9.66355 23.7213 9.66355H12.2782ZM18 23.5031C15.0198 23.5031 12.5958 21.0789 12.5958 18.0986C12.5958 15.1181 15.0198 12.6941 18 12.6941C20.9798 12.6941 23.4048 15.1181 23.4048 18.0986C23.4048 21.0791 20.9798 23.5031 18 23.5031ZM18 14.7752C16.1667 14.7752 14.6764 16.267 14.6764 18.0986C14.6764 19.932 16.1667 21.422 18 21.422C19.8337 21.422 21.3232 19.932 21.3232 18.0986C21.3232 16.267 19.8337 14.7752 18 14.7752ZM23.6115 11.3653C22.8525 11.3653 22.2401 11.9784 22.2401 12.7377C22.2401 13.4927 22.8525 14.1086 23.6115 14.1086C24.368 14.1086 24.9841 13.4927 24.9841 12.7377C24.9841 11.9784 24.368 11.3653 23.6115 11.3653Z" fill="white"/>
<defs>
<linearGradient id="paint0_linear" x1="5.27225" y1="30.7283" x2="30.7279" y2="5.27267" gradientUnits="userSpaceOnUse">
<stop stop-color="#F3CA5F"/>
<stop offset="0.2151" stop-color="#F88827"/>
<stop offset="0.4301" stop-color="#DC2D5C"/>
<stop offset="0.7097" stop-color="#A44882"/>
<stop offset="1" stop-color="#46469B"/>
</linearGradient>
</defs>
</svg>
