<svg width="36" height="36" viewBox="0 0 36 36" fill="none" xmlns="http://www.w3.org/2000/svg">
<path fill-rule="evenodd" clip-rule="evenodd" d="M0 18C0 8.05888 8.05888 0 18 0C27.9411 0 36 8.05888 36 18C36 27.9411 27.9411 36 18 36C8.05888 36 0 27.9411 0 18Z" fill="#FF0000"/>
<path fill-rule="evenodd" clip-rule="evenodd" d="M27.1987 13.5548C26.9779 12.7066 26.3272 12.0386 25.5011 11.8119C24.0039 11.3999 17.9999 11.3999 17.9999 11.3999C17.9999 11.3999 11.9959 11.3999 10.4986 11.8119C9.67245 12.0386 9.02183 12.7066 8.80103 13.5548C8.3999 15.0922 8.3999 18.2999 8.3999 18.2999C8.3999 18.2999 8.3999 21.5075 8.80103 23.045C9.02183 23.8932 9.67245 24.5612 10.4986 24.788C11.9959 25.1999 17.9999 25.1999 17.9999 25.1999C17.9999 25.1999 24.0039 25.1999 25.5011 24.788C26.3272 24.5612 26.9779 23.8932 27.1987 23.045C27.5999 21.5075 27.5999 18.2999 27.5999 18.2999C27.5999 18.2999 27.5999 15.0922 27.1987 13.5548Z" fill="white"/>
<path fill-rule="evenodd" clip-rule="evenodd" d="M16.2002 21.6001V15.6001L21.0002 18.6002L16.2002 21.6001Z" fill="#FF0000"/>
</svg>
