<svg width="227" height="62" viewBox="0 0 227 62" fill="none" xmlns="http://www.w3.org/2000/svg">
<path fill-rule="evenodd" clip-rule="evenodd" d="M78.0226 18.958V21.768H75.8928V32.4944H72.5041V21.768H71.0518V18.958H72.5041V18.2004C72.5041 16.5713 72.9318 15.3824 73.7871 14.6331C74.6421 13.8839 75.9896 13.5093 77.829 13.5093V16.3927C77.1189 16.3927 76.619 16.5311 76.3283 16.808C76.038 17.085 75.8928 17.5492 75.8928 18.2007V18.9584H78.0226V18.958ZM88.8898 18.958H92.3023V32.4944H88.8898V30.4421C88.0348 31.9244 86.6389 32.6655 84.7027 32.6655C83.1857 32.6655 81.9436 32.1565 80.9752 31.1384C80.0071 30.1204 79.5229 28.7072 79.5229 26.8991V18.958H82.9114V26.4103C82.9114 27.4691 83.1777 28.2837 83.7103 28.8537C84.2429 29.424 84.9687 29.709 85.8884 29.709C86.8081 29.709 87.5386 29.4237 88.0786 28.8537C88.6192 28.2837 88.8895 27.4694 88.8895 26.4103V18.958H88.8898ZM98.6194 18.958V20.9861C99.4747 19.5038 100.862 18.7626 102.782 18.7626C104.316 18.7626 105.566 19.2717 106.534 20.2897C107.502 21.3078 107.987 22.7207 107.987 24.5291V32.4947H104.598V25.0179C104.598 23.9591 104.332 23.1485 103.799 22.5866C103.267 22.0247 102.54 21.7437 101.621 21.7437C100.701 21.7437 99.9709 22.025 99.4309 22.5866C98.89 23.1485 98.6197 23.9591 98.6197 25.0179V32.4947H95.2072V18.9584H98.6194V18.958ZM119.314 28.6462C120.024 27.9377 120.379 26.9644 120.379 25.7264C120.379 24.4883 120.024 23.5151 119.314 22.8063C118.604 22.0978 117.773 21.7434 116.821 21.7434C115.869 21.7434 115.042 22.0938 114.34 22.7942C113.638 23.4945 113.287 24.4637 113.287 25.7018C113.287 26.9398 113.642 27.9171 114.352 28.6337C115.062 29.3506 115.889 29.709 116.833 29.709C117.777 29.709 118.604 29.3546 119.314 28.6462ZM111.629 30.7227C110.427 29.4116 109.826 27.7379 109.826 25.7015C109.826 23.665 110.423 21.9998 111.617 20.7048C112.811 19.4098 114.328 18.7623 116.167 18.7623C118.007 18.7623 119.41 19.5281 120.379 21.0592V14.4132H123.767V32.4941H120.379V30.2218C119.362 31.8671 117.95 32.6898 116.143 32.6898C114.336 32.6898 112.831 32.0342 111.629 30.7227ZM125.921 22.9161C125.921 21.7431 126.414 20.758 127.398 19.9596C128.382 19.1615 129.689 18.7623 131.319 18.7623C132.949 18.7623 134.255 19.1575 135.24 19.9475C136.224 20.7375 136.749 21.8084 136.813 23.1604H133.328C133.231 22.02 132.537 21.45 131.246 21.45C130.6 21.45 130.1 21.5804 129.745 21.8408C129.391 22.1015 129.213 22.46 129.213 22.9158C129.213 23.3719 129.479 23.7304 130.012 23.9911C130.544 24.2519 131.189 24.4553 131.948 24.6019C132.706 24.7488 133.461 24.9317 134.211 25.1517C134.962 25.3717 135.603 25.7628 136.135 26.3247C136.668 26.8866 136.934 27.6321 136.934 28.5606C136.934 29.7822 136.422 30.7759 135.397 31.5417C134.373 32.3074 133.065 32.6901 131.476 32.6901C129.887 32.6901 128.583 32.3115 127.567 31.5541C126.55 30.7965 125.994 29.7093 125.897 28.2921H129.382C129.511 29.4324 130.229 30.0024 131.536 30.0024C132.166 30.0024 132.674 29.8599 133.061 29.5749C133.448 29.2896 133.642 28.915 133.642 28.4508C133.642 27.9865 133.376 27.62 132.843 27.3512C132.311 27.0824 131.666 26.8748 130.907 26.728C130.148 26.5814 129.394 26.4025 128.644 26.1906C127.893 25.9787 127.252 25.6004 126.72 25.0543C126.188 24.5086 125.921 23.7957 125.921 22.9161Z" fill="#00C0F5"/>
<path fill-rule="evenodd" clip-rule="evenodd" d="M146.616 32.5176C144.734 32.5176 143.205 31.8875 142.031 30.6272C140.856 29.3673 140.269 27.7074 140.269 25.6473C140.269 23.5875 140.868 21.9317 142.067 20.6794C143.266 19.4275 144.818 18.8014 146.725 18.8014C148.631 18.8014 150.147 19.3911 151.273 20.5705C152.4 21.7496 152.963 23.2117 152.963 24.9564C152.963 25.4251 152.931 25.8615 152.866 26.2651H142.007C142.071 27.7836 142.53 28.9794 143.382 29.8514C144.235 30.7238 145.313 31.1601 146.616 31.1601C147.63 31.1601 148.494 30.9256 149.21 30.4575C149.926 29.9888 150.421 29.3747 150.694 28.6156H152.504C152.07 29.7465 151.362 30.6794 150.381 31.4144C149.399 32.1501 148.144 32.5176 146.616 32.5176ZM151.225 24.9326C151.225 23.4786 150.786 22.3196 149.91 21.4552C149.033 20.5909 147.947 20.1586 146.652 20.1586C145.357 20.1586 144.279 20.5829 143.418 21.4308C142.558 22.2791 142.087 23.4462 142.007 24.9326H151.225ZM163.919 19.044L159.671 25.6594L163.895 32.275H161.964L158.561 26.968L155.448 32.275H153.518L157.741 25.6594L153.518 19.044H155.448L158.851 24.375L161.988 19.044H163.919ZM171.906 31.0636C173.257 31.0636 174.412 30.5507 175.37 29.525C176.327 28.4989 176.805 27.1742 176.805 25.5507C176.805 23.927 176.331 22.6386 175.382 21.6854C174.432 20.7325 173.278 20.2558 171.918 20.2558C170.559 20.2558 169.405 20.7526 168.455 21.7462C167.506 22.7395 167.031 24.0439 167.031 25.6597C167.031 27.2754 167.506 28.5801 168.455 29.5734C169.405 30.5667 170.555 31.0636 171.906 31.0636ZM172.171 18.8017C174.022 18.8017 175.546 19.4198 176.745 20.6557C177.944 21.8916 178.543 23.5233 178.543 25.5507C178.543 27.5781 177.94 29.2463 176.733 30.5547C175.526 31.8634 174.006 32.5176 172.171 32.5176C170.981 32.5176 169.936 32.2226 169.035 31.6332C168.134 31.0435 167.466 30.2884 167.031 29.3673V38.5275H165.342V19.044H167.031V21.928C167.466 21.0072 168.134 20.2558 169.035 19.6741C169.936 19.0924 170.981 18.8017 172.171 18.8017ZM180.594 32.2754V14.343H182.283V32.2754H180.594ZM190.705 31.1608C192.073 31.1608 193.255 30.668 194.253 29.6823C195.25 28.697 195.749 27.3519 195.749 25.6476C195.749 23.9436 195.274 22.6025 194.325 21.6253C193.376 20.6477 192.218 20.1589 190.85 20.1589C189.482 20.1589 188.34 20.6437 187.423 21.6129C186.506 22.5825 186.047 23.9313 186.047 25.6597C186.047 27.3886 186.482 28.7375 187.351 29.7067C188.22 30.6757 189.338 31.1608 190.705 31.1608ZM190.717 32.5176C188.827 32.5176 187.291 31.8875 186.108 30.6272C184.925 29.3673 184.334 27.7151 184.334 25.6717C184.334 23.628 184.962 21.9721 186.217 20.7038C187.472 19.4359 189.04 18.8014 190.922 18.8014C192.805 18.8014 194.373 19.4359 195.628 20.7038C196.883 21.9718 197.511 23.6199 197.511 25.6473C197.511 27.6747 196.851 29.3269 195.532 30.6031C194.213 31.8794 192.608 32.5176 190.717 32.5176ZM201.251 19.044V21.225C201.974 19.6096 203.334 18.8014 205.329 18.8014V20.5705H204.846C203.688 20.5705 202.799 20.8856 202.18 21.5157C201.56 22.1458 201.251 23.228 201.251 24.7626V32.275H199.562V19.0437H201.251V19.044ZM212.858 32.5176C210.976 32.5176 209.448 31.8875 208.273 30.6272C207.099 29.3673 206.512 27.7074 206.512 25.6473C206.512 23.5875 207.111 21.9317 208.31 20.6794C209.508 19.4275 211.061 18.8014 212.967 18.8014C214.874 18.8014 216.39 19.3911 217.516 20.5705C218.642 21.7496 219.205 23.2117 219.205 24.9564C219.205 25.4251 219.173 25.8615 219.109 26.2651H208.25C208.314 27.7836 208.772 28.9794 209.625 29.8514C210.478 30.7238 211.556 31.1601 212.859 31.1601C213.873 31.1601 214.737 30.9256 215.453 30.4575C216.169 29.9888 216.663 29.3747 216.937 28.6156H218.747C218.313 29.7465 217.605 30.6794 216.623 31.4144C215.642 32.1495 214.387 32.5176 212.858 32.5176ZM217.468 24.9326C217.468 23.4786 217.029 22.3196 216.153 21.4552C215.276 20.5909 214.19 20.1586 212.895 20.1586C211.599 20.1586 210.522 20.5829 209.661 21.4308C208.801 22.2791 208.33 23.4462 208.249 24.9326H217.468ZM222.921 19.044V21.225C223.645 19.6096 225.005 18.8014 227 18.8014V20.5705H226.517C225.358 20.5705 224.47 20.8856 223.851 21.5157C223.231 22.1458 222.921 23.228 222.921 24.7626V32.275H221.232V19.0437H222.921V19.044Z" fill="white"/>
<path d="M31.4392 61.1388C48.2502 61.1388 61.8783 47.6763 61.8783 31.0694C61.8783 14.4625 48.2502 1 31.4392 1C14.6281 1 1 14.4625 1 31.0694C1 47.6763 14.6281 61.1388 31.4392 61.1388Z" fill="#007FB1" stroke="#007FB1" stroke-width="0.216" stroke-miterlimit="22.9256"/>
<path d="M31.4384 59.6584C47.432 59.6584 60.3973 46.8587 60.3973 31.0696C60.3973 15.2804 47.432 2.48071 31.4384 2.48071C15.4448 2.48071 2.47949 15.2804 2.47949 31.0696C2.47949 46.8587 15.4448 59.6584 31.4384 59.6584Z" fill="white"/>
<path fill-rule="evenodd" clip-rule="evenodd" d="M27.5048 53.1003C26.5331 53.0131 24.5278 52.585 23.4641 52.2365C22.1776 51.8158 19.7293 50.6781 19.7293 50.5015C19.7293 50.187 22.6714 47.5749 24.8091 45.9907C26.1544 44.9938 29.2088 42.9307 30.1566 42.3791L30.7033 42.0604L31.189 42.776C31.456 43.169 31.7538 43.521 31.8506 43.5581C32.2501 43.7115 37.6699 37.7517 38.2576 36.5124C38.5382 35.9211 38.4921 35.2181 38.1504 34.8768C37.8892 34.6152 37.7716 34.5901 36.8352 34.591C34.9477 34.5923 33.8282 34.787 31.8313 35.4603C30.8021 35.8075 27.4619 37.4879 27.8371 37.7915C28.1745 38.065 28.5323 38.6714 28.5323 38.6714C28.7778 38.8587 27.3966 39.2065 26.9165 39.4632C26.838 39.5049 26.7705 39.5585 26.6998 39.5946C26.6998 39.5946 24.7642 40.4336 23.3931 41.3658C22.3992 42.0423 21.3804 42.7641 21.3655 42.7641C21.3487 42.7641 21.9258 42.0501 22.5125 41.4576C23.168 40.7956 24.4274 39.8378 24.9815 39.3783C26.3397 38.4005 30.1737 35.2178 34.4007 32.6455C34.4769 32.6158 34.7278 32.8967 34.9581 33.2693C35.1883 33.642 35.5099 34.0718 35.673 34.2242L35.9691 34.5016L36.6905 33.8144C37.6163 32.9332 40.1157 30.1984 41.4138 28.6458C42.7536 27.0435 43.4702 25.9494 43.5441 25.3927C43.6901 24.2926 42.5043 24.0591 39.4434 24.5845C35.8929 25.1938 31.7231 26.4684 30.9287 27.1878C30.6378 27.451 30.6636 27.6377 31.1221 28.5951L31.5245 29.4344L29.8544 30.2539C27.1089 31.6018 23.4826 34.1386 20.265 36.9629C19.6272 37.5225 19.0818 37.9568 19.0525 37.9274C19.0234 37.8984 19.1997 37.5961 19.4441 37.2551C21.1249 34.9152 24.5065 31.5101 27.1399 29.5051C28.8301 28.2183 32.5665 25.7305 34.3448 24.7081C36.0725 23.7152 41.0192 21.1428 41.2017 21.1428C41.2646 21.1428 41.5624 21.5507 41.864 22.0489C42.8117 23.6164 42.8098 23.6157 43.6746 22.8381C43.9965 22.5488 44.29 22.3121 44.3272 22.3121C44.4877 22.3121 45.6437 24.1114 46.2259 25.2668C47.9445 28.6787 48.4531 30.9879 48.344 34.882C48.2891 36.8418 48.2409 37.2612 47.9348 38.4483C46.9948 42.0901 45.3709 44.968 42.8201 47.5103C39.7301 50.59 35.984 52.4371 31.6582 53.0128C30.5286 53.1636 28.6534 53.2033 27.5048 53.1003Z" fill="#007FB1"/>
<path fill-rule="evenodd" clip-rule="evenodd" d="M16.338 52.594C14.8968 49.7695 13.7272 46.6498 13.3671 43.9847C12.8127 39.8795 16.4684 35.6063 19.8839 31.8314C22.5093 28.9303 28.2449 24.6035 32.5959 22.0541C34.6584 20.8454 35.6023 20.4592 37.7952 19.3045C38.8243 18.7629 39.754 18.2314 39.8612 18.1236C40.044 17.9405 40.0301 17.8439 39.6536 16.6501C39.3633 15.7307 39.2884 15.3494 39.3859 15.2893C39.9797 14.9222 49.7906 13.3056 51.3923 13.3108C52.2532 13.3137 52.3426 13.4303 51.9454 14.0312C51.608 14.5418 44.094 22.0896 43.3836 22.6308C43.1731 22.7917 42.9231 22.8934 42.8279 22.8569C42.7329 22.8204 42.4429 22.3683 42.1833 21.852C41.5653 20.6229 41.4874 20.6045 39.9323 21.3269C33.2798 24.4162 26.1263 29.3336 22.1111 33.5758C21.2944 34.4173 15.9121 40.7333 17.5386 41.433C20.0799 38.3834 23.4428 35.7707 25.7575 34.1703C27.3191 33.0911 30.8366 30.9314 31.9329 30.3786C33.6086 29.2758 32.8678 29.4428 32.2949 27.8085C32.2949 27.8085 34.8747 26.5136 36.7622 25.9963C41.3915 24.7279 42.844 25.1215 43.1492 25.4263C43.4304 25.7076 40.8151 28.991 37.5927 32.403C36.7551 33.2897 36.0104 33.9966 35.9381 33.9733C35.8658 33.9501 35.6417 33.6817 35.4402 33.3762C35.2383 33.0711 34.9555 32.6955 34.8105 32.5415C34.5583 32.2731 34.5331 32.269 34.1834 32.4469C33.4413 32.8244 28.6944 36.0451 28.1099 36.5679C27.777 36.8657 27.2155 37.299 26.8619 37.5299C24.1322 39.9805 18.1308 43.9879 19.6133 44.9977C22.8603 42.218 31.1108 37.8496 29.3109 39.2136C28.53 38.1247 28.7881 38.7396 28.4684 37.8431C28.4684 37.6936 32.6889 36.0064 33.7087 35.7355C38.5505 34.448 37.8058 35.8779 37.9085 35.9173C38.3128 36.7423 33.5265 41.6332 33.0409 42.1425L31.9103 43.3221L31.466 42.6352C31.2064 42.2342 30.9116 41.9203 30.7572 41.8816C30.4747 41.8105 29.3845 42.415 27.3882 43.7503C24.6195 45.6016 22.8909 46.9662 20.2162 49.4104C19.5655 50.0052 18.9865 50.4921 18.9304 50.4921C18.8742 50.4921 18.3368 51.0708 17.7369 51.778C17.1369 52.4855 16.6302 53.0642 16.6115 53.0642C16.5931 53.0645 16.4701 52.8527 16.338 52.594Z" fill="#00C0F5"/>
<path fill-rule="evenodd" clip-rule="evenodd" d="M12.3534 40.8766C10.6319 37.1756 10.1682 31.9489 10.8315 28.7833C11.3372 26.5781 12.3366 24.1685 13.451 22.469C14.7614 20.4701 16.8914 18.251 18.8321 16.8641C22.8024 14.026 27.8812 13.1283 33.1767 14.3211C38.0551 15.42 39.3626 17.3456 39.132 17.5658C33.7619 19.742 28.8794 22.1684 24.3663 25.795C19.5006 29.5347 14.2945 35.241 12.9599 40.6428L12.7144 41.6864L12.3534 40.8766Z" fill="#00C0F5"/>
</svg>
